<svg xmlns:rdf="http://www.w3.org/1999/02/22-rdf-syntax-ns#" style="shape-rendering:crispEdges" xmlns="http://www.w3.org/2000/svg" height="51" width="48" version="1.1" xmlns:cc="http://creativecommons.org/ns#" xmlns:dc="http://purl.org/dc/elements/1.1/" viewBox="0 0 48 51.000001">
 <g fill="#f39305">
  <path d="m21.527 50.908c-8.245-0.88-15.337-5.624-19.014-12.719-1.7676-3.412-2.513-6.575-2.513-10.666 0-6.218 2.1206-11.495 6.3991-15.925 3.3134-3.4309 7.1649-5.6575 11.655-6.7383l1.7283-0.416 0.0021-2.2519c0.0011-1.2385 0.06927-2.2245 0.15138-2.191 0.08211 0.033 2.6334 1.4576 5.6695 3.1648 4.111 2.3115 5.4643 3.1549 5.3011 3.3035-0.32909 0.2998-10.731 6.0996-10.939 6.0996-0.10701 0-0.18045-0.7803-0.18045-1.9172 0-1.0868-0.07525-1.9171-0.17375-1.9171-0.09556 0-0.85816 0.2152-1.6947 0.4782-6.4414 2.025-11.442 7.2324-13.186 13.731-0.54259 2.0218-0.66785 6.0311-0.25228 8.075 1.6006 7.8726 7.464 13.717 15.582 15.531 0.66274 0.148 2.2269 0.2456 3.9389 0.2456 3.8096 0 6.3932-0.6195 9.485-2.2743 6.4199-3.436 10.307-9.8244 10.299-16.927-0.0054-4.7955-1.5637-8.8919-4.8127-12.652l-1.1834-1.3693 1.2884-1.4607c0.70863-0.8034 1.3446-1.4839 1.4133-1.5121 0.24735-0.1016 2.6942 2.6543 3.7178 4.1875 2.5983 3.8917 3.7927 7.9025 3.7927 12.735 0 2.9018-0.32171 5.037-1.114 7.3938-2.6829 7.9806-9.6863 14.024-18.115 15.632-2.1547 0.4111-5.2963 0.5667-7.2438 0.3588z"/>
  <path d="m25.189 42.467c-0.06078-0.3264-0.12635-1.2481-0.14571-2.0482-0.03036-1.2549 0.0088-1.4637 0.28488-1.5196 0.44314-0.09 0.61728 0.465 0.77606 2.4723l0.1336 1.6889h-0.46916c-0.38451 0-0.4891-0.1071-0.57967-0.5934z"/>
  <path d="m19.122 42.245c-0.13424-0.3486 0.98371-3.6933 1.2694-3.7978 0.35235-0.1289 0.67719 0.055 0.67719 0.3827 0 0.4039-0.9159 3.1645-1.1461 3.4545-0.24552 0.3093-0.67435 0.2882-0.80048-0.039z"/>
  <path d="m30.903 40.55c-1.4932-2.3796-1.7056-3.0583-0.9571-3.0583 0.41661 0 2.1135 2.6741 2.1144 3.3321 0.000916 0.6723-0.66205 0.5154-1.1573-0.2738z"/>
  <path d="m13.74 39.03c0-0.5511 2.1878-2.904 2.7023-2.9062 0.7623 0 0.47998 0.7365-0.78313 2.0523-1.2166 1.2672-1.9192 1.5798-1.9192 0.8539z"/>
  <path d="m34.534 36.152c-1.4587-1.0506-1.8575-1.6843-1.1459-1.8209 0.28478-0.055 3.0943 1.7527 3.3397 2.1484 0.16533 0.2666-0.10947 0.7383-0.42707 0.733-0.16555 0-0.96055-0.48-1.7667-1.0605z"/>
  <path d="m10.076 34.103c0-0.291 0.3174-0.5197 1.41-1.016 1.8073-0.8208 2.3932-0.9438 2.5504-0.5356 0.16518 0.429-0.06952 0.6114-1.69 1.3137-1.6659 0.7219-2.2705 0.7853-2.2705 0.2379z"/>
  <path d="m36.824 31.317c-1.5209-0.3481-1.7478-0.4502-1.799-0.8092-0.05229-0.3669 0.01623-0.4089 0.64122-0.3933 0.38487 0.01 1.3181 0.1534 2.0738 0.3195 1.2602 0.2771 1.374 0.3397 1.374 0.756 0 0.5933-0.20351 0.6045-2.2901 0.127z"/>
  <path d="m8.7939 28.18v-0.4565h2.1069 2.1069v0.4565 0.4565h-2.1069-2.1069v-0.4565z"/>
  <path d="m35.054 25.976c-0.17417-0.4523 0.11768-0.6022 1.9472-1.0002 1.8928-0.4117 2.2593-0.3731 2.1721 0.2287-0.05087 0.3509-0.26538 0.4468-1.6159 0.7228-1.9531 0.399-2.3654 0.4071-2.5034 0.049z"/>
  <path d="m11.725 23.355c-1.5246-0.6796-1.9262-1.0884-1.4933-1.5199 0.13115-0.1307 0.68952 0.022 1.8034 0.4944 1.7994 0.7625 2.173 1.0326 2.0107 1.4541-0.16272 0.4226-0.58746 0.3442-2.3209-0.4286z"/>
  <path d="m33.16 21.789c-0.18225-0.2189-0.18092-0.3305 0.0066-0.5558 0.40901-0.4911 2.7993-2.0917 3.1237-2.0917 0.2538 0 0.53375 0.3365 0.53375 0.6415 0 0.1233-3.0818 2.2798-3.258 2.2798-0.09793 0-0.28069-0.1232-0.40613-0.2738z"/>
  <path d="m15.005 19.02c-1.352-1.3007-1.6697-2.0715-0.85242-2.0679 0.51445 0 2.7023 2.3551 2.7023 2.9061 0 0.665-0.54356 0.4187-1.8499-0.8382z"/>
  <path d="m29.725 18.837c-0.3952-0.1576-0.25613-0.6339 0.64122-2.1962 0.68446-1.1917 0.95822-1.5153 1.2824-1.5158 0.64134-0.0009 0.51143 0.6329-0.46459 2.2669-0.8655 1.4489-1.0331 1.6149-1.4591 1.4451z"/>
  <path d="m19.601 16.123c-0.60883-1.8213-0.61258-2.276-0.01877-2.276 0.28752 0 0.46703 0.329 0.92178 1.6893 0.69192 2.0699 0.70541 2.3275 0.12182 2.3275-0.39674 0-0.50356-0.1814-1.0248-1.7408z"/>
  <path d="m25.003 17.308c-0.1295-0.2088 0.02968-2.8067 0.22046-3.598 0.07009-0.2907 0.23351-0.4108 0.55888-0.4108h0.45982l-0.12999 1.5552c-0.07149 0.8554-0.19023 1.7797-0.26385 2.0541-0.14132 0.5266-0.62479 0.7551-0.84532 0.3995z"/>
  <path d="m19.154 23.546v-2.6177h9.6713v2.046q-1.1976 1.1735-2.4354 3.37t-1.892 4.6738q-0.64408 2.4673-0.63402 4.413h-2.7273q0.07045-3.049 1.258-6.2184 1.1976-3.1694 3.1902-5.6667h-6.4308z"/>
 </g>
</svg>
