<svg xmlns="http://www.w3.org/2000/svg" width="33" height="33" viewBox="0 0 33 33"><path fill="#fff" d="M15.52 20.6c-1.55-.17-2.95-.56-4.15-1.5-.15-.1-.3-.22-.44-.35-.52-.5-.57-1.08-.16-1.67.36-.5.95-.65 1.57-.36.12.06.23.13.34.2 2.23 1.54 5.3 1.58 7.54.07.22-.18.46-.3.73-.38.54-.14 1.03.05 1.32.52.33.54.32 1.06-.08 1.47-.63.65-1.37 1.1-2.2 1.43-.78.3-1.64.45-2.5.56.14.12.2.2.28.27 1.15 1.16 2.3 2.3 3.46 3.47.4.4.47.9.25 1.35-.24.5-.77.82-1.3.8-.3-.04-.57-.2-.8-.43-.86-.87-1.75-1.73-2.6-2.62-.25-.26-.37-.2-.6 0-.86.9-1.75 1.8-2.64 2.68-.4.4-.88.47-1.35.24-.48-.24-.8-.74-.77-1.25 0-.34.18-.6.42-.84 1.14-1.14 2.27-2.28 3.4-3.42.1-.08.16-.16.27-.27zM16.46 16.62c-2.76 0-5.03-2.3-5-5.07 0-2.8 2.27-5.06 5.06-5.05 2.8 0 5.05 2.3 5.03 5.13 0 2.76-2.3 5-5.1 5zm2.52-5.06c0-1.38-1.1-2.47-2.48-2.47s-2.5 1.1-2.48 2.5c0 1.36 1.12 2.44 2.5 2.44 1.37 0 2.46-1.1 2.46-2.48zM33 16.5C33 7.4 25.6 0 16.5 0S0 7.4 0 16.5 7.4 33 16.5 33 33 25.6 33 16.5zm-31.5 0c0-8.28 6.72-15 15-15s15 6.72 15 15-6.72 15-15 15-15-6.72-15-15z"/></svg>
