<svg xmlns="http://www.w3.org/2000/svg" viewBox="0 0 26 26"><path fill="#7c7c7c" d="M13 0C5.83 0 0 5.83 0 13s5.83 13 13 13 13-5.83 13-13S20.17 0 13 0zm7.5 20.16c0-.3 0-.5 0-.5 0-1.78-2.05-2.43-3.15-2.9-.4-.17-1.14-.53-1.9-.9-.27-.13-.5-.47-.53-.75l-.1-.83c.6-.55 1.13-1.3 1.22-2.16h.13c.2 0 .4-.15.44-.34l.2-1.28c.04-.28-.22-.45-.43-.45 0-.02 0-.05.02-.07 0-.16.03-.3.04-.45 0-.1.02-.23.03-.35.02-.6-.08-1.14-.25-1.44-.18-.4-.44-.8-.8-1.15-1.02-.96-2.2-1.34-3.2-.57-.68-.1-1.5.2-2.08.9-.32.36-.52.8-.6 1.2-.08.28-.14.6-.15.94-.02.38.02.74.1 1.02-.2 0-.4.18-.4.44l.2 1.28c.03.2.22.35.43.35h.12c.2.93.68 1.68 1.22 2.2l-.1.82c-.02.3-.25.62-.5.75-.75.36-1.48.7-1.92.9-1.03.42-3.15 1.1-3.15 2.88v.4C3.68 18.2 2.62 15.72 2.62 13 2.62 7.28 7.28 2.62 13 2.62c5.73 0 10.38 4.66 10.38 10.38 0 2.78-1.1 5.3-2.88 7.16z"/></svg>