<svg xmlns="http://www.w3.org/2000/svg" width="46" height="80" viewBox="0 0 46 80"><path fill="#fff" stroke="#a5a5a5" stroke-width=".974" d="M45.5.82C38.38 1.54 31.2 4.48 26 8.3c-6.22 4.3-11.05 9.97-14.22 16.38-.06.1-.1.2-.17.32-.28.57-.54 1.14-.78 1.72-.5 1.13-.96 2.28-1.38 3.46-.36 1.03-.66 2.16-.9 3.38-.33 1.35-.6 2.7-.78 4.08v.04c-.02.13-.04.26-.06.4-.03.24-.06.48-.1.74-.04.52-.1 1.04-.13 1.57-.1 1.27-.1 2.57-.1 3.87.05 1.28.14 2.56.3 3.85v.02c0 .06 0 .13.02.2.05.46.13.93.2 1.4v.07c.05.24.1.46.13.7v.06s0 .02.02.02c.05.27.1.55.15.82v.06c.07.28.13.55.2.83.07.32.15.68.24 1 .35 1.6.77 3.1 1.28 4.42.76 1.9 1.4 3.64 1.77 4.74.13.4.38.94.38.94L1.1 72.28l33.3 7.15 8.22-34.7L30.02 52c-.07-.05-1.34-1.86-1.4-1.9-.22-.24-.48-.56-.77-.97-1.47-2.54-2.73-4.97-3.78-7.62-.95-3.14-1.5-6.68-1.5-10.06 0-1.48.13-2.95.34-4.37v-.09c.05-.2.1-.38.13-.57v-.02C24 12.48 45.5.82 45.5.82z"/></svg>