<svg xmlns="http://www.w3.org/2000/svg" viewBox="0 0 46 80"><path fill="#a5a5a5" d="M25.77 7.6c-6.44 4.38-11.44 10.16-14.73 16.68-.06.1-.1.22-.17.33-.28.58-.55 1.16-.8 1.75-.52 1.15-1 2.32-1.43 3.52-.37 1.05-.68 2.2-.94 3.44-.33 1.37-.6 2.75-.8 4.15 0 .02 0 .03 0 .04-.02.14-.04.27-.06.4-.03.25-.06.5-.1.76-.05.53-.1 1.06-.14 1.6-.1 1.3-.12 2.63-.1 3.95.05 1.3.14 2.6.3 3.92 0 0 0 0 0 .02 0 .06.02.13.03.2.06.47.14.95.22 1.43 0 .02 0 .05 0 .07.05.23.1.46.13.7 0 0 0 0 0 .02 0 0 0 0 0 .02 0 0 0 0 0 .02 0 0 0 .02.02.02.05.28.1.56.16.84 0 .02 0 .04 0 .06.07.28.13.56.2.84.07.34.16.7.25 1.03.36 1.64.8 3.16 1.33 4.5.78 1.94 1.44 3.7 1.83 4.82.14.42.4.96.4.96L0 72.73 34.5 80 43 44.7l-13.06 7.37c-.06-.05-1.37-1.9-1.43-1.94-.23-.24-.5-.57-.8-.98-1.53-2.6-2.83-5.07-3.92-7.77-.98-3.2-1.56-6.8-1.54-10.24 0-1.5.12-3 .34-4.44 0 0 0-.02 0-.03 0 0 0-.02 0-.02s0-.02 0-.02 0-.02 0-.03c.04-.2.08-.38.12-.57 0 0 0 0 0-.02C23.72 11.86 46 0 46 0c-7.4.73-14.84 3.73-20.23 7.6zm14-5.3c-7.25 4.8-12.92 8.85-17.64 18.75-1.57 4.3-2.02 9.3-1.4 14.24l-.07 1.9.15-1.32c.14.9.32 1.78.52 2.66 0 0 0 .02 0 .02.03.14.06.27.08.4.02.08.03.15.05.22 0 0 0 .04 0 .05.17.97.4 1.86.72 2.75 0 0 0 0 0 .02 1.56 5.24 4.04 8.3 7.3 12.3l10.73-6.27-6.96 30.07-29.26-6.18 9.4-7.86s-.7-2.33-1.64-4.53c-.48-1.3-.75-2.1-1.33-3.65-.3-.82-.55-1.67-.8-2.54 0 0 0-.02 0-.02-.08-.37-.16-.74-.24-1.1-.07-.36-.14-.72-.2-1.08 0 0 0-.02 0-.02-.06-.35-.1-.68-.16-1 0-.03 0-.04 0-.06-.13-.83-.24-1.67-.32-2.52 0-.1-.02-.2-.03-.3 0 0 0-.02 0-.03-.07-.72-.1-1.46-.14-2.2 0-.5-.03-1-.04-1.5.02-.72.05-1.45.1-2.25.17-2.97.65-6.22 1.3-9.06.36-1.35.8-2.66 1.28-3.94 1.3-3.18 3.1-6.3 5.17-9.18 0 0 0 0 .02 0 .33-.44.67-.87 1.02-1.3.05-.05.1-.1.13-.15.3-.36.6-.7.9-1.06.15-.17.3-.35.46-.52.2-.24.43-.47.64-.7.2-.22.4-.45.6-.67.2-.2.37-.37.56-.56.26-.27.53-.54.8-.8 0-.02.02-.03.03-.04 0 0 0 0 .02-.02.1-.1.17-.16.25-.24.06-.06.12-.1.18-.17h.02c0-.02 0-.02.02-.03 1.54-1.36 3.22-2.73 4.88-4 .25-.17.5-.35.73-.5V8.3c.27-.18.54-.35.8-.53.16-.1.32-.2.47-.28l2.84-1.57c.45-.35 8.1-3.62 8.1-3.62z"/></svg>
