<svg xmlns="http://www.w3.org/2000/svg" width="48" height="51" viewBox="0 0 48 51"><path fill="#f39305" d="M21.53 50.9C13.28 50.04 6.2 45.3 2.5 38.2.76 34.77 0 31.6 0 27.5c0-6.2 2.12-11.5 6.4-15.92 3.3-3.43 7.16-5.66 11.65-6.74l1.73-.42V0L30.9 6.47l-11.3 6.1V8.73s-.85.22-1.68.48c-6.44 2.04-11.44 7.25-13.2 13.74-.53 2.03-.66 6.03-.24 8.08 1.6 7.87 7.46 13.72 15.58 15.53.66.15 2.23.25 3.94.25 3.8 0 6.4-.62 9.5-2.28 6.4-3.43 10.3-9.82 10.28-16.93 0-4.8-1.56-8.9-4.8-12.66l-1.2-1.37 2.7-2.97s2.7 2.65 3.73 4.2c2.6 3.88 3.8 7.9 3.8 12.72 0 2.9-.32 5.04-1.1 7.4-2.7 7.98-9.7 14.02-18.13 15.63-2.15.4-5.3.57-7.24.36zm3.66-8.43c-.07-.33-.14-1.25-.16-2.05-.03-1.26 0-1.47.3-1.52.43-.1.6.46.76 2.47l.14 1.7h-.47c-.4 0-.5-.12-.58-.6zm-6.08-.23c-.13-.34 1-3.7 1.27-3.8.34-.12.67.06.67.4 0 .4-.92 3.15-1.15 3.44-.24.3-.67.3-.8-.04zm11.78-1.7c-1.5-2.37-1.7-3.05-.95-3.05.4 0 2.1 2.67 2.1 3.32 0 .68-.65.52-1.15-.27zm-17.16-1.5c0-.56 2.2-2.9 2.7-2.92.76 0 .48.74-.78 2.06-1.22 1.26-1.92 1.58-1.92.85zm20.8-2.9c-1.47-1.04-1.86-1.67-1.15-1.8.27-.06 3.08 1.74 3.33 2.14.16.27-.1.74-.43.73-.17 0-.96-.47-1.77-1.05zm-14.56-2.08l5.85-10.35h-6.05v-2.55h10.56L22 35.57zm-9.9.04c0-.3.3-.52 1.4-1 1.8-.83 2.4-.96 2.56-.55.16.43-.07.6-1.7 1.3-1.66.74-2.27.8-2.27.25zm26.74-2.78c-1.52-.35-1.74-.45-1.8-.8-.05-.38.02-.42.65-.4.38 0 1.3.15 2.07.3 1.26.3 1.37.35 1.37.77 0 .58-.2.6-2.28.12zM8.8 28.18v-.46H13v.92H8.8zm26.25-2.2c-.17-.46.12-.6 1.95-1 1.9-.42 2.26-.38 2.17.22-.05.35-.26.45-1.6.73-1.97.4-2.38.4-2.52.05zm-23.33-2.63c-1.52-.68-1.92-1.08-1.5-1.52.14-.13.7.03 1.8.5 1.8.76 2.2 1.03 2.02 1.45-.16.43-.58.35-2.32-.43zm21.44-1.56c-.18-.23-.18-.34 0-.57.4-.5 2.8-2.1 3.13-2.1.24 0 .52.35.52.65 0 .13-3.08 2.28-3.25 2.28-.1 0-.3-.12-.4-.27zM15 19c-1.35-1.3-1.67-2.07-.85-2.07.52 0 2.7 2.36 2.7 2.9 0 .67-.54.43-1.85-.83zm14.72-.18c-.4-.16-.25-.64.65-2.2.68-1.2.95-1.5 1.28-1.5.64-.02.5.62-.47 2.25-.86 1.44-1.03 1.6-1.46 1.44zM19.6 16.12c-.6-1.82-.6-2.27-.02-2.27.3 0 .47.33.92 1.7.7 2.06.7 2.3.12 2.3-.4 0-.5-.17-1.02-1.73zm5.4 1.2c-.13-.22.03-2.82.22-3.6.07-.3.24-.42.56-.42h.46l-.13 1.55c-.06.86-.18 1.78-.25 2.06-.14.54-.63.76-.85.4z"/></svg>