<svg xmlns="http://www.w3.org/2000/svg" width="238" height="35" viewBox="0 0 238 35"><path fill="#7d7d7d" d="M7.22 8h3.02c1.12 0 1.77.06 2.23.2 1.05.26 2.9 1.24 2.9 3.93 0 .85-.27 3.08-2.9 3.8-.8.2-1.5.2-2.43.2h-2.9V8zM0 2.23v32.05h7.15V22.15h2.43c3.55 0 7.1 0 9.78-2.55 2.83-2.62 3.02-5.84 3.02-7.34 0-3.08-1.05-4.98-1.84-5.97-2.16-2.96-5.38-3.74-8.86-3.94-.92-.07-1.83-.07-2.75-.07H0zM32.56 27.86v-6.88H43.9v-6.23H32.57V8.4h11.6V2.22H25.35v32H44.1v-6.37zM54.22 7.8h2.42c1.78.07 3.55.2 4.73 1.57.85 1 .92 2.17.92 2.62 0 1.1-.4 1.83-.6 2.3-1.05 1.82-3.02 1.95-4.92 1.95h-2.56V7.8zM47.2 2.23v32.05h7.02v-13.5l8.8 13.5h8.52l-9.58-13.63c2.04-.46 2.7-.73 3.68-1.25 2.62-1.64 3.8-4.78 3.8-7.67 0-.85-.06-3.2-1.57-5.37-2.1-3.15-5.58-3.93-9.2-4.07-.9-.07-1.7-.07-2.62-.07H47.2zM79.95 14.55v-6.3h12V2.24H72.73v32h7.23V20.77h12v-6.23zM102.33 27.86v-6.88h11.35v-6.23h-11.35V8.4H114V2.22H95.18v32h18.77v-6.37zM141.9 3.6c-.84-.32-1.7-.72-2.62-1.04-3-1-6.03-1.12-7.15-1.12-.92 0-3.6.07-6.3 1.12-2.1.78-4 2.16-5.5 3.8-1.33 1.37-1.98 2.5-2.38 3.14-1.38 2.56-2.03 5.9-2.03 8.8 0 7.26 3.8 11.52 5.97 13.3 3.93 3.27 8.8 3.4 10.43 3.4 4.6 0 8-1.57 9.5-2.16l.08-7.48c-.58.4-1.1.8-1.63 1.18-1.64 1.12-3.74 1.7-4.6 1.9-1.18.2-2.03.2-2.5.2-6.23 0-8.52-4.06-9.24-6.22-.6-1.77-.66-3.28-.66-4 0-5.5 3.08-8.33 5.05-9.44 1.9-1.05 3.88-1.12 4.73-1.12 4.66 0 7.74 2.63 8.86 3.6V3.6zM144.4 2.23v6.23h7.1v25.76h7.14V8.4h7.1V2.22zM184.83 14.55v-6.3h12.08V2.24h-19.3v32h7.23V20.77h12.08v-6.23zM207.74 2.23v32.05h-7.22V2.23zM211.1 2.23v6.23h7.08v25.76h7.15V8.4h7.1V2.22zM235.3.85h.73c.72 0 .92.46.92.72 0 .33-.26.66-.66.66l.65.85h-.33l-.78-1.05h.2c.58 0 .65-.26.65-.46s-.14-.46-.67-.46h-.4V3.1h-.25V.85zm2.44 1.12c0-1-.8-1.77-1.77-1.77-1 0-1.78.78-1.78 1.77 0 .98.78 1.77 1.77 1.77.98 0 1.77-.8 1.77-1.77m-3.74 0c0-1.12.92-1.97 2.03-1.97 1.12 0 1.97.92 1.97 1.97 0 1.1-.92 1.96-1.97 1.96-1.18.07-2.04-.85-2.04-1.96"/><path d="M235.3.85h.73c.72 0 .92.46.92.72 0 .33-.26.66-.66.66l.65.85h-.33l-.78-1.05h.2c.58 0 .65-.26.65-.46s-.14-.46-.67-.46h-.4V3.1h-.25V.85zm2.44 1.12c0-1-.8-1.77-1.77-1.77-1 0-1.78.78-1.78 1.77 0 .98.78 1.77 1.77 1.77.98 0 1.77-.8 1.77-1.77zm-3.74 0c0-1.12.92-1.97 2.03-1.97 1.12 0 1.97.92 1.97 1.97 0 1.1-.92 1.96-1.97 1.96-1.18.07-2.04-.85-2.04-1.96z"/></svg>