<svg xmlns="http://www.w3.org/2000/svg" width="26.5" height="36"><path fill="#2267a2" d="M13.25 17.13c-2.84 0-5.13-2.22-5.13-4.95s2.3-4.94 5.13-4.94c2.84 0 5.14 2.2 5.14 4.94 0 2.73-2.3 4.95-5.15 4.95m12.2-9.34c-.66-1.53-1.6-2.9-2.83-4.06C21.4 2.56 20 1.64 18.42 1c-1.65-.66-3.38-1-5.17-1-1.8 0-3.52.34-5.16 1-1.58.65-3 1.56-4.22 2.74C2.66 4.9 1.7 6.27 1.04 7.8.34 9.35 0 11.02 0 12.74c0 2.9 2.12 7.55 6.32 13.85 3.07 4.6 6.18 8.48 6.22 8.52l.7.88.72-.88c.04-.04 3.15-3.9 6.22-8.52 4.2-6.3 6.32-10.96 6.32-13.85 0-1.72-.35-3.4-1.04-4.96"/></svg>
