<svg xmlns="http://www.w3.org/2000/svg" viewBox="0 0 28 38.5"><path fill="#a5a5a5" d="M14 18.3c-3 0-5.43-2.35-5.43-5.27 0-2.92 2.43-5.3 5.43-5.3 3 0 5.43 2.38 5.43 5.3S17 18.3 14 18.3m12.9-9.97c-.7-1.63-1.7-3.08-3-4.34-1.3-1.26-2.78-2.24-4.45-2.93C17.72.37 15.9 0 14 0c-1.9 0-3.72.36-5.45 1.07C6.88 1.77 5.4 2.74 4.1 4c-1.28 1.25-2.3 2.7-3 4.33C.37 10 0 11.8 0 13.63c0 3.1 2.25 8.08 6.67 14.8 3.25 4.95 6.54 9.08 6.57 9.12l.76.95.75-.95c.04-.04 3.33-4.17 6.58-9.1C25.75 21.7 28 16.72 28 13.64c0-1.85-.37-3.64-1.1-5.32"/></svg>