<svg xmlns="http://www.w3.org/2000/svg" width="33" height="33" viewBox="0 0 33 33"><path fill="#7c7c7c" d="M17.13 26.5h-8.3v-20h9.06c2.62 0 5.03 1.67 5.03 4.6 0 2.3-1.26 3.84-2.88 4.33v.06c2.4.48 4.1 1.8 4.1 4.93 0 2.9-1.97 6.07-7.02 6.07zm.17-12.54c.54-.4.82-1.13.82-1.8 0-.73-.34-1.43-.96-1.8-.65-.4-1.84-.3-2.6-.3H13.5v4.37h1.4c.8 0 1.72.06 2.4-.47zm.9 4.25c-.64-.37-1.54-.37-2.28-.37h-2.4v4.97h2.2c.82 0 1.87.06 2.58-.44.64-.44 1-1.3 1-2.1 0-.77-.44-1.67-1.1-2.05zM33 16.5C33 7.4 25.6 0 16.5 0S0 7.4 0 16.5 7.4 33 16.5 33 33 25.6 33 16.5zm-31.5 0c0-8.28 6.72-15 15-15s15 6.72 15 15-6.72 15-15 15-15-6.72-15-15z"/></svg>
